<?xml version="1.0" encoding="UTF-8"?>
<svg version="1.1" xmlns="http://www.w3.org/2000/svg" width="1280" height="1239">
<path d="M0 0 C2.32328104 0.00564729 4.64655476 0.00846318 6.969841 0.0110817 C29.05119778 0.04726203 50.85647405 0.48549259 72.78655243 3.31805801 C74.20464879 3.48768954 75.62295171 3.65560138 77.04143524 3.82196426 C143.41065968 11.65348405 208.55102411 30.30949712 268.78655243 59.31805801 C269.387034 59.60616348 269.98751556 59.89426895 270.60619354 60.19110489 C290.27838228 69.6368906 309.21323485 79.8449511 327.78655243 91.31805801 C328.68712372 91.86977676 329.58769501 92.42149551 330.51555634 92.98993301 C346.19823687 102.6133284 361.16342823 113.15778461 375.78655243 124.31805801 C376.83198212 125.10696426 377.8774118 125.89587051 378.95452118 126.70868301 C385.71227793 131.83019132 392.24248065 137.16502785 398.68108368 142.68133926 C401.43908146 145.0391603 404.26101612 147.30696182 407.09905243 149.56805801 C413.92172207 155.12690462 420.24341014 161.20982532 426.61907196 167.26825333 C428.84985876 169.37792735 431.09532781 171.47088896 433.34514618 173.56024551 C434.09779755 174.26141495 434.85044891 174.96258438 435.6259079 175.68500137 C437.06124635 177.02182385 438.49890989 178.35615625 439.93938446 179.68744278 C443.95607348 183.44276855 447.6477456 187.34665322 451.22576141 191.52142715 C453.14489408 193.73054608 455.18676542 195.78095122 457.28655243 197.81805801 C461.33504911 201.82572952 465.09110373 205.9862111 468.78655243 210.31805801 C469.69084005 211.35899658 470.59584774 212.39930984 471.50139618 213.43915176 C478.06023436 220.99539716 484.3653915 228.70871236 490.47942352 236.62860489 C491.73752474 238.25469014 493.00484373 239.87312456 494.27483368 241.48993301 C501.08365296 250.22085917 507.49933791 259.20553784 513.78655243 268.31805801 C514.26850067 269.01495743 514.75044891 269.71185684 515.24700165 270.42987442 C529.09696771 290.55523993 541.46017822 311.68070543 552.78655243 333.31805801 C553.36373016 334.4165004 553.9409079 335.51494278 554.53557587 336.6466713 C592.24004364 408.87848927 614.54177448 489.13026046 620.78655243 570.31805801 C620.91584641 571.99110756 620.91584641 571.99110756 621.04775238 573.69795609 C621.69592303 582.67610534 621.95963665 591.60639803 621.98967743 600.61102676 C621.99669984 602.03871567 622.00378666 603.46640427 622.01093292 604.89409256 C622.03033116 609.43125232 622.035367 613.96836097 622.03655243 618.50555801 C622.03699429 619.27858009 622.03743614 620.05160217 622.03789139 620.84804916 C622.04487217 644.13298238 621.73549392 667.18972565 618.78655243 690.31805801 C618.61266414 691.74230757 618.43933957 693.16662604 618.2665329 694.59100723 C613.3138901 734.90605772 604.78385833 774.75604287 591.81194305 813.26874161 C590.77253898 816.35973135 589.75600557 819.45769554 588.73967743 822.55633926 C571.42541695 874.65135159 546.00550551 925.96590825 514.0087204 970.61053848 C512.77848085 972.329335 511.56433202 974.0585818 510.35295868 975.79071426 C501.04620086 989.03896043 491.1814907 1001.90592018 480.78655243 1014.31805801 C480.36696259 1014.82256485 479.94737274 1015.32707169 479.51506805 1015.84686661 C473.68193912 1022.85726572 467.70092332 1029.69079728 461.48967743 1036.36883926 C460.09156629 1037.87507168 458.72336562 1039.39234924 457.39177704 1040.95795059 C451.84926967 1047.47401294 445.7899009 1053.46559222 439.73503876 1059.49994278 C437.85326969 1061.37635277 435.97690505 1063.2580477 434.10100555 1065.14032364 C428.16443947 1071.08018418 422.20350003 1076.89273969 415.78655243 1082.31805801 C414.1788687 1083.77251318 412.57415528 1085.23026696 410.97405243 1086.69305801 C405.72474266 1091.42381894 400.29031298 1095.88802853 394.78655243 1100.31805801 C393.65341546 1101.24344209 392.52061794 1102.16924195 391.38811493 1103.09540176 C382.50482505 1110.32397297 373.34957207 1117.10545296 364.0111618 1123.73309708 C361.90122594 1125.23635691 359.80345746 1126.75505968 357.70842743 1128.27899551 C338.03470673 1142.50607645 317.12357139 1154.77513383 295.78655243 1166.31805801 C294.72629852 1166.89410782 293.66604462 1167.47015762 292.5736618 1168.06366348 C219.78540456 1207.38643356 138.64330484 1230.4063985 48.78655243 1238.31805801 C46.97465424 1238.4461586 46.97465424 1238.4461586 45.12615204 1238.57684708 C31.2934301 1239.49246985 17.45776536 1239.56027923 3.59905243 1239.56805801 C1.72145737 1239.56956863 1.72145737 1239.56956863 -0.19406891 1239.57110977 C-21.99483492 1239.5593131 -43.54391058 1238.70236495 -65.21344757 1236.31805801 C-65.88132294 1236.24544754 -66.5491983 1236.17283707 -67.23731232 1236.09802628 C-76.5999252 1235.07020831 -85.91033637 1233.78638925 -95.21344757 1232.31805801 C-96.48188507 1232.11873672 -97.75032257 1231.91941544 -99.05719757 1231.71405411 C-154.52617347 1222.77876149 -208.28224966 1205.93993964 -259.21344757 1182.31805801 C-260.71077423 1181.63211563 -260.71077423 1181.63211563 -262.23834991 1180.93231583 C-275.95095176 1174.63897237 -289.12862531 1167.63823068 -302.17218781 1160.05975723 C-304.39910432 1158.78442429 -306.63190043 1157.53263159 -308.88166046 1156.29901505 C-318.11228707 1151.22127437 -326.9591955 1145.72981267 -335.69562531 1139.84393692 C-337.77438878 1138.4441077 -339.85957889 1137.05429373 -341.94586945 1135.66571426 C-343.32842033 1134.74051467 -344.71059439 1133.81475169 -346.09235382 1132.88837051 C-346.68657639 1132.492155 -347.28079895 1132.09593948 -347.89302826 1131.68771744 C-348.50093704 1131.27714096 -349.10884583 1130.86656448 -349.73517609 1130.4435463 C-350.69729382 1129.805196 -350.69729382 1129.805196 -351.67884827 1129.15394974 C-353.66064566 1127.7184702 -355.42785892 1126.26937751 -357.25121975 1124.65204048 C-367.443158 1115.93493833 -375.46672441 1114.75565918 -388.57868195 1115.02508926 C-390.47772513 1115.0232364 -392.37676878 1115.0164869 -394.27577972 1115.0052681 C-399.39038534 1114.98831926 -404.50237694 1115.03803601 -409.61655617 1115.0995903 C-414.99466911 1115.15178916 -420.3726182 1115.13865753 -425.75092316 1115.13202286 C-435.93279342 1115.12869602 -446.11361864 1115.17855393 -456.29521132 1115.25009155 C-474.51347558 1115.37594298 -492.73210595 1115.40204963 -510.95074892 1115.42198277 C-517.33187999 1115.43095144 -523.71249941 1115.46016386 -530.09346008 1115.50725842 C-534.07660343 1115.53447125 -538.05973882 1115.54968476 -542.04295158 1115.56255531 C-543.87501304 1115.57125121 -545.70705921 1115.58517085 -547.53903389 1115.60500908 C-579.23760359 1115.94126576 -606.18479361 1105.18310148 -628.90094757 1083.13055801 C-648.8089558 1063.0769539 -658.54801877 1036.06723996 -658.48087311 1008.09477615 C-658.48461683 1006.68330203 -658.48922121 1005.27182998 -658.49460375 1003.86036116 C-658.50676027 1000.0092011 -658.50658202 996.15812838 -658.504215 992.30695355 C-658.50380496 988.14246943 -658.51486391 983.97801263 -658.52433014 979.81354141 C-658.54090138 971.66418893 -658.54643795 963.51486539 -658.5475549 955.36549746 C-658.54850734 948.73595194 -658.5526274 942.10641591 -658.55895615 935.4768734 C-658.57655899 916.6522679 -658.58579667 897.82768515 -658.5842952 879.00307136 C-658.58421529 877.98948033 -658.58413537 876.97588931 -658.58405304 875.9315834 C-658.58397128 874.91674464 -658.58388952 873.90190588 -658.58380528 872.85631443 C-658.58299294 856.42152445 -658.60211993 839.98682625 -658.63032977 823.5520628 C-658.65911301 806.64889563 -658.67286704 789.74577313 -658.67114222 772.84258085 C-658.67048013 763.36407535 -658.67589248 753.88566602 -658.69749832 744.40718269 C-658.71578199 736.33481223 -658.71999892 728.26258154 -658.70647947 720.19019925 C-658.6999855 716.07852899 -658.69970181 711.96712629 -658.71718597 707.8554821 C-658.85859599 672.34617968 -652.39009151 642.85833054 -626.76154327 616.68988419 C-620.65826302 610.54046574 -620.65826302 610.54046574 -618.21344757 609.31805801 C-617.82924069 607.51611135 -617.82924069 607.51611135 -617.77448273 605.32196426 C-617.7273111 604.46632385 -617.68013947 603.61068344 -617.63153839 602.72911453 C-617.58895905 601.78909088 -617.5463797 600.84906723 -617.50251007 599.88055801 C-617.39354946 597.86662837 -617.28432622 595.85271292 -617.17487335 593.83880997 C-617.1204306 592.77490036 -617.06598785 591.71099075 -617.00989532 590.61484146 C-611.76528505 489.7657842 -583.80654283 392.10321663 -473.81110382 222.38446426 C-471.48692015 219.66034815 -469.25421173 216.87135809 -467.02594757 214.06805801 C-456.01430905 200.62428367 -443.47337797 188.48252025 -431.21344757 176.19305801 C-430.58152496 175.55845657 -429.94960236 174.92385513 -429.29853058 174.27002335 C-422.78316874 167.7337315 -416.28832529 161.25531827 -409.21344757 155.31805801 C-408.11846083 154.36896215 -407.02468201 153.41847066 -405.93219757 152.46649551 C-338.08651747 93.8772479 -258.60194993 49.33641014 -74.52594757 4.00555801 C-72.79622711 3.78464493 -72.79622711 3.78464493 -71.03156281 3.55926895 C-67.09654522 3.09275892 -63.15841762 2.68848851 -59.21344757 2.31805801 C-58.30729706 2.23192245 -57.40114655 2.1457869 -56.46753693 2.05704117 C-37.63329572 0.3248205 -18.89589716 -0.04667174 0 0 Z " fill="#DF4846" transform="translate(658.2134475708008,-0.3180580139160156)"/>
<path d="M0 0 C2.32328104 0.00564729 4.64655476 0.00846318 6.969841 0.0110817 C29.05119778 0.04726203 50.85647405 0.48549259 72.78655243 3.31805801 C74.20464879 3.48768954 75.62295171 3.65560138 77.04143524 3.82196426 C143.41065968 11.65348405 208.55102411 30.30949712 268.78655243 59.31805801 C269.387034 59.60616348 269.98751556 59.89426895 270.60619354 60.19110489 C290.27838228 69.6368906 309.21323485 79.8449511 327.78655243 91.31805801 C328.68712372 91.86977676 329.58769501 92.42149551 330.51555634 92.98993301 C346.19823687 102.6133284 361.16342823 113.15778461 375.78655243 124.31805801 C376.83198212 125.10696426 377.8774118 125.89587051 378.95452118 126.70868301 C385.71227793 131.83019132 392.24248065 137.16502785 398.68108368 142.68133926 C401.43908146 145.0391603 404.26101612 147.30696182 407.09905243 149.56805801 C413.92172207 155.12690462 420.24341014 161.20982532 426.61907196 167.26825333 C428.84985876 169.37792735 431.09532781 171.47088896 433.34514618 173.56024551 C434.09779755 174.26141495 434.85044891 174.96258438 435.6259079 175.68500137 C437.06124635 177.02182385 438.49890989 178.35615625 439.93938446 179.68744278 C443.95607348 183.44276855 447.6477456 187.34665322 451.22576141 191.52142715 C453.14489408 193.73054608 455.18676542 195.78095122 457.28655243 197.81805801 C461.33504911 201.82572952 465.09110373 205.9862111 468.78655243 210.31805801 C469.69084005 211.35899658 470.59584774 212.39930984 471.50139618 213.43915176 C478.06023436 220.99539716 484.3653915 228.70871236 490.47942352 236.62860489 C491.73752474 238.25469014 493.00484373 239.87312456 494.27483368 241.48993301 C501.08365296 250.22085917 507.49933791 259.20553784 513.78655243 268.31805801 C514.26850067 269.01495743 514.75044891 269.71185684 515.24700165 270.42987442 C529.09696771 290.55523993 541.46017822 311.68070543 552.78655243 333.31805801 C553.36373016 334.4165004 553.9409079 335.51494278 554.53557587 336.6466713 C592.24004364 408.87848927 614.54177448 489.13026046 620.78655243 570.31805801 C620.87274841 571.43342438 620.9589444 572.54879074 621.04775238 573.69795609 C621.69592303 582.67610534 621.95963665 591.60639803 621.98967743 600.61102676 C621.99669984 602.03871567 622.00378666 603.46640427 622.01093292 604.89409256 C622.03033116 609.43125232 622.035367 613.96836097 622.03655243 618.50555801 C622.03699429 619.27858009 622.03743614 620.05160217 622.03789139 620.84804916 C622.04487217 644.13298238 621.73549392 667.18972565 618.78655243 690.31805801 C618.61266414 691.74230757 618.43933957 693.16662604 618.2665329 694.59100723 C613.3138901 734.90605772 604.78385833 774.75604287 591.81194305 813.26874161 C590.77253898 816.35973135 589.75600557 819.45769554 588.73967743 822.55633926 C577.59781604 856.07988519 562.7102445 888.27063714 545.91155243 919.31805801 C545.41776093 920.23208389 544.92396942 921.14610977 544.41521454 922.0878334 C543.96283417 922.90630753 543.5104538 923.72478165 543.04436493 924.56805801 C542.65394012 925.27446426 542.26351532 925.98087051 541.86125946 926.70868301 C540.78655243 928.31805801 540.78655243 928.31805801 538.78655243 929.31805801 C540.5703994 923.50987364 542.74342879 917.99979846 545.2509079 912.46771622 C568.22574987 861.76687334 571.72472211 805.05843039 552.03655243 752.56805801 C543.14620154 729.91543544 531.02160733 708.54993785 514.78655243 690.31805801 C513.94995087 689.36157364 513.1133493 688.40508926 512.25139618 687.41962051 C497.91556304 671.24773515 481.53608092 658.087238 462.78655243 647.31805801 C461.85601044 646.78100235 461.85601044 646.78100235 460.90666962 646.23309708 C430.3280938 628.77044333 395.31395999 620.12660409 360.17604828 620.18675613 C359.05975088 620.18464042 357.94345348 620.18252471 356.79332888 620.18034488 C353.08061076 620.17438914 349.36792706 620.17534185 345.65520477 620.17621231 C342.98169014 620.17317786 340.3081794 620.16972936 337.63466644 620.16568375 C331.88959384 620.15760226 326.14452562 620.1526378 320.39944839 620.14939308 C311.30374305 620.14386924 302.20807464 620.12694419 293.11238861 620.1080513 C289.9931851 620.10169579 286.8739815 620.09538716 283.75477791 620.08907413 C282.58570628 620.08669849 282.58570628 620.08669849 281.39301705 620.08427485 C272.53705622 620.06636721 263.68109282 620.050127 254.82512665 620.03509903 C254.01637799 620.03372316 253.20762934 620.03234729 252.37437315 620.03092972 C239.27890976 620.00901596 226.18345605 619.99824594 213.08797757 619.99072828 C199.60984628 619.98263497 186.13179719 619.95927531 172.65371287 619.92277461 C164.35912563 619.90085046 156.06470787 619.89105382 147.77009316 619.89727495 C142.07696855 619.90046881 136.38398792 619.88899357 130.69090788 619.86638054 C127.41577395 619.85381482 124.14102225 619.84963499 120.86586761 619.85879707 C89.59160419 619.93740213 62.35988585 612.65776655 38.78655243 591.31805801 C38.30089813 590.88154922 37.81524384 590.44504044 37.31487274 589.99530411 C18.06528556 572.47039092 4.38629094 546.78553924 2.59958363 520.57530546 C2.52697728 517.70708445 2.51202548 514.84483323 2.52153778 511.97571182 C2.51715651 510.88814913 2.51277524 509.80058644 2.5082612 508.6800673 C2.496017 505.06423756 2.4977442 501.44855441 2.49944305 497.83270645 C2.49341364 495.22803916 2.48648808 492.62337382 2.47873688 490.01871109 C2.46333344 484.42097919 2.45488315 478.82327232 2.45102692 473.22552109 C2.44525025 465.10724338 2.42661472 456.98903238 2.40458637 448.87078431 C2.36891456 435.66376672 2.34058708 422.45674531 2.31829071 409.24969864 C2.31695572 408.46046754 2.31562073 407.67123643 2.31424528 406.85808924 C2.30482565 401.26141247 2.29566552 395.66473529 2.28655243 390.06805801 C2.27616592 383.69566185 2.26564303 377.32326594 2.25481415 370.95087051 C2.25348341 370.16624993 2.25215266 369.38162935 2.2507816 368.57323238 C2.22824587 355.42731976 2.19799837 342.28143531 2.1624217 329.13555169 C2.14091619 321.0529189 2.12618117 312.97032996 2.12058294 304.88767019 C2.11577998 298.66971636 2.10090299 292.45182221 2.08258247 286.23389435 C2.0767657 283.70538632 2.07422173 281.17686801 2.07542229 278.64835358 C2.08225319 258.50280795 1.47027399 238.42324767 -2.58844757 218.63055801 C-2.78438507 217.5947963 -2.98032257 216.55903458 -3.18219757 215.49188614 C-11.8921207 171.41857257 -39.13685805 129.91542872 -74.21344757 102.31805801 C-75.56889679 101.23717911 -75.56889679 101.23717911 -76.95172882 100.13446426 C-119.22736547 67.33137691 -173.11373919 52.31703983 -226.29010773 58.14276505 C-251.45827912 61.33442767 -274.71384754 68.87380392 -297.5213089 79.8497963 C-298.49479279 80.31369766 -299.46827667 80.77759903 -300.47126007 81.25555801 C-301.77281036 81.88784317 -301.77281036 81.88784317 -303.1006546 82.53290176 C-303.79787628 82.79200333 -304.49509796 83.05110489 -305.21344757 83.31805801 C-305.87344757 82.98805801 -306.53344757 82.65805801 -307.21344757 82.31805801 C-240.31630009 40.40659212 -160.47145685 15.93167938 -74.52594757 4.00555801 C-73.3728006 3.85828262 -72.21965363 3.71100723 -71.03156281 3.55926895 C-67.09654522 3.09275892 -63.15841762 2.68848851 -59.21344757 2.31805801 C-57.8542218 2.18885468 -57.8542218 2.18885468 -56.46753693 2.05704117 C-37.63329572 0.3248205 -18.89589716 -0.04667174 0 0 Z " fill="#FE9A5C" transform="translate(658.2134475708008,-0.3180580139160156)"/>
<path d="M0 0 C7.32138655 0.03317984 14.64180449 0.09299743 21.96262741 0.19028938 C24.14807792 0.21733179 26.33361283 0.23840698 28.51918411 0.25266945 C60.01957988 0.48041197 86.65739464 9.57154574 109.13337708 31.98492098 C110.42115051 33.25335848 110.42115051 33.25335848 111.73493958 34.54742098 C122.9869447 45.98268352 130.40831734 59.09801653 135.57087708 74.23492098 C135.80572815 74.91820467 136.04057922 75.60148836 136.282547 76.30547762 C139.81587788 87.39733714 140.42903801 98.72865099 140.40080261 110.29012728 C140.40454879 111.68611564 140.40915412 113.0821019 140.41453326 114.47808492 C140.42665933 118.27718979 140.42651521 122.07620592 140.42414451 125.87532568 C140.42373368 129.98730532 140.43480065 134.09925749 140.44425964 138.21122408 C140.46081348 146.25368931 140.46636664 154.29612522 140.4674844 162.33860607 C140.46843756 168.88180611 140.47256117 175.42499654 140.47888565 181.96819353 C140.49648281 200.55456701 140.50572692 219.14091748 140.5042247 237.72729935 C140.50410483 239.22767362 140.50410483 239.22767362 140.50398254 240.75835848 C140.50390078 241.75984147 140.50381902 242.76132446 140.50373478 243.79315542 C140.50292234 260.01374781 140.5220535 276.23424726 140.55025928 292.45481278 C140.57904977 309.14447583 140.59279618 325.83409364 140.59107172 342.52378213 C140.59040995 351.87988823 140.59580881 361.23589686 140.61742783 370.59198046 C140.63572099 378.55923871 140.63992065 386.52635533 140.62640898 394.4936256 C140.61992007 398.55075278 140.61961257 402.60760889 140.63711548 406.66470957 C140.71673296 426.34355996 140.67474592 445.6253896 132.38337708 463.92242098 C132.03976135 464.70617098 131.69614563 465.48992098 131.34211731 466.29742098 C128.29726297 473.03202025 124.6162893 479.10163237 120.13337708 484.98492098 C119.44630676 485.90402254 118.75923645 486.8231241 118.05134583 487.77007723 C99.77380235 511.18509238 74.2350661 524.45396368 44.9947108 528.55132759 C38.93433935 529.23185333 32.92563298 529.26400253 26.83285522 529.24561739 C25.44965264 529.24864665 24.06645173 529.25253997 22.68325371 529.25720996 C18.92428705 529.26739874 15.16541675 529.26533174 11.40644252 529.26102936 C7.33614213 529.25854543 3.26586395 529.26759676 -0.8044281 529.27506685 C-8.76186416 529.28776915 -16.7192664 529.2896132 -24.6767109 529.28726659 C-31.14841067 529.28547851 -37.62010023 529.28724354 -44.09179878 529.29149103 C-45.0153171 529.29208622 -45.93883541 529.29268141 -46.89033912 529.29329463 C-48.76686668 529.29450647 -50.64339423 529.2957206 -52.51992179 529.29693701 C-70.08870558 529.307795 -87.65747014 529.30565812 -105.22625501 529.29955216 C-121.27487417 529.29438269 -137.32343263 529.30564239 -153.37203979 529.32465038 C-169.88091233 529.34405254 -186.3897562 529.35228073 -202.89864022 529.34852713 C-212.15509767 529.34661894 -221.41150347 529.3490655 -230.66795158 529.36324167 C-238.54671751 529.37518668 -246.42539995 529.37652537 -254.30416708 529.36445151 C-258.31823011 529.3585851 -262.33214067 529.35740096 -266.34619331 529.36945391 C-270.03070868 529.3803882 -273.71494565 529.37712103 -277.3994484 529.36319222 C-279.34219774 529.3593352 -281.28495982 529.37003023 -283.22767919 529.3814891 C-313.20440104 529.19967283 -339.37750018 516.11429067 -360.18986511 495.1497159 C-379.08790456 475.28719699 -388.19912354 448.87151244 -388.13404846 421.76163912 C-388.13779219 420.350165 -388.14239656 418.93869295 -388.14777911 417.52722412 C-388.15993563 413.67606406 -388.15975738 409.82499135 -388.15739036 405.97381651 C-388.15698031 401.8093324 -388.16803926 397.64487559 -388.17750549 393.48040438 C-388.19407673 385.33105189 -388.19961331 377.18172835 -388.20073025 369.03236043 C-388.20168269 362.40281491 -388.20580275 355.77327888 -388.2121315 349.14373636 C-388.22973435 330.31913086 -388.23897202 311.49454811 -388.23747055 292.66993432 C-388.23739064 291.6563433 -388.23731073 290.64275227 -388.23722839 289.59844637 C-388.23714663 288.58360761 -388.23706487 287.56876884 -388.23698063 286.52317739 C-388.2361683 270.08838742 -388.25529528 253.65368921 -388.28350513 237.21892577 C-388.31228836 220.3157586 -388.32604239 203.4126361 -388.32431757 186.50944382 C-388.32365549 177.03093831 -388.32906783 167.55252899 -388.35067368 158.07404566 C-388.36895734 150.0016752 -388.37317427 141.9294445 -388.35965483 133.85706221 C-388.35316085 129.74539195 -388.35287716 125.63398925 -388.37036133 121.52234507 C-388.52386563 82.97605909 -380.01294937 54.29702853 -352.54240417 26.29742098 C-349.7615611 23.89412302 -347.18454112 22.53582527 -343.86662292 20.98492098 C-341.77081012 19.71360306 -339.68780239 18.42098778 -337.61662292 17.10992098 C-319.91242931 6.13467374 -301.68486577 0.67490226 -280.80192566 0.69971895 C-279.64821535 0.69322098 -278.49450504 0.68672302 -277.30583382 0.68002814 C-273.47060474 0.66080785 -269.63548831 0.65548497 -265.80021667 0.65020418 C-263.03555422 0.64034074 -260.27090705 0.62754139 -257.5062561 0.61489534 C-250.78477613 0.58594404 -244.06330656 0.56743505 -237.34178227 0.55255524 C-229.46177851 0.5347421 -221.5818204 0.50671709 -213.70184851 0.47842302 C-199.58247556 0.42809862 -185.463091 0.38736265 -171.34367371 0.35186434 C-157.76388946 0.31771745 -144.18415299 0.27635963 -130.60441589 0.22686434 C-113.34488942 0.16397219 -96.08535293 0.10803798 -78.82578641 0.05733401 C-74.15168192 0.04343454 -69.47758517 0.02806546 -64.80348974 0.01139938 C-43.20188215 -0.06561379 -21.60165648 -0.08424195 0 0 Z " fill="#BE172B" transform="translate(387.8666229248047,586.0150790214539)"/>
<path d="M0 0 C166.39188546 0 166.39188546 0 195.25 28.1953125 C214.89069866 48.22659323 220.38597277 73.30101808 220.30249023 100.65478516 C219.8672355 127.4867214 210.66479543 151.54768599 192.25 171.1875 C182.205882 180.7294121 170.50204497 187.27896314 158 193 C157.14148438 193.40992188 156.28296875 193.81984375 155.3984375 194.2421875 C150.22487317 196.53562323 144.87222107 197.8624245 139.375 199.125 C138.68937988 199.28387695 138.00375977 199.44275391 137.29736328 199.60644531 C113.73924877 204.69170066 91.51851954 203 67 203 C67 235.34 67 267.68 67 301 C44.89 301 22.78 301 0 301 C0 201.67 0 102.34 0 0 Z " fill="#FEFEFE" transform="translate(171,700)"/>
<path d="M0 0 C55.45225694 0 55.45225694 0 69.8125 13.3125 C78.81224849 22.94752485 81.55988507 34.40442399 81.4375 47.25 C81.42992676 48.35738525 81.42235352 49.46477051 81.41455078 50.60571289 C81.15007692 63.73191764 77.98862107 75.24699851 69 85.21875 C50.50283562 102.92317876 23.78004106 99 0 99 C0 66.33 0 33.66 0 0 Z " fill="#C5112B" transform="translate(238,752)"/>
<path d="M0 0 C0.66 0.33 1.32 0.66 2 1 C2 1.99 2 2.98 2 4 C-2.08891229 5.87974592 -6.18231383 7.74919096 -10.28027344 9.60913086 C-11.67446942 10.24366878 -13.06738309 10.88103191 -14.45898438 11.52124023 C-16.45635065 12.43954503 -18.45806723 13.34768103 -20.4609375 14.25390625 C-21.08495453 14.54342667 -21.70897156 14.83294708 -22.35189819 15.13124084 C-23.87555764 15.81463662 -25.43578333 16.4153684 -27 17 C-27.66 16.67 -28.32 16.34 -29 16 C-6.56603215 2.5502515 -6.56603215 2.5502515 0 0 Z " fill="#FB8D2E" transform="translate(380,66)"/>
<path d="M0 0 C1.03326595 2.65160197 1.1209714 3.70837733 0.01196289 6.38183594 C-0.7499939 7.67009277 -0.7499939 7.67009277 -1.52734375 8.984375 C-2.07197266 9.91894531 -2.61660156 10.85351562 -3.17773438 11.81640625 C-3.75845703 12.78449219 -4.33917969 13.75257813 -4.9375 14.75 C-5.51435547 15.73355469 -6.09121094 16.71710937 -6.68554688 17.73046875 C-8.11281234 20.16035872 -9.55120106 22.5829083 -11 25 C-11.33 24.34 -11.66 23.68 -12 23 C-11.22729492 20.76928711 -11.22729492 20.76928711 -9.98046875 18.02734375 C-9.53509766 17.04572266 -9.08972656 16.06410156 -8.63085938 15.05273438 C-8.15455078 14.02470703 -7.67824219 12.99667969 -7.1875 11.9375 C-6.72279297 10.90560547 -6.25808594 9.87371094 -5.77929688 8.81054688 C-2.25958156 1.12979078 -2.25958156 1.12979078 0 0 Z " fill="#FAA661" transform="translate(1209,904)"/>
<path d="M0 0 C0.66 0.33 1.32 0.66 2 1 C2 1.99 2 2.98 2 4 C-4.4 7.07692308 -4.4 7.07692308 -7.4375 6.6875 C-7.953125 6.460625 -8.46875 6.23375 -9 6 C-6.45368965 3.02930459 -3.57769851 1.5224249 0 0 Z " fill="#FC8F28" transform="translate(380,66)"/>
<path d="M0 0 C-2.11386464 2.11386464 -3.79267603 2.97008322 -6.5 4.1875 C-7.2940625 4.55230469 -8.088125 4.91710937 -8.90625 5.29296875 C-9.5971875 5.52628906 -10.288125 5.75960937 -11 6 C-11.66 5.67 -12.32 5.34 -13 5 C-11.40377344 3.96679519 -9.79770894 2.94877571 -8.1875 1.9375 C-7.29417969 1.36902344 -6.40085937 0.80054687 -5.48046875 0.21484375 C-3 -1 -3 -1 0 0 Z " fill="#F88839" transform="translate(364,77)"/>
</svg>
